{
	"asset":{
		"generator":"Khronos glTF Blender I/O v4.0.44",
		"version":"2.0"
	},
	"extensionsUsed":[
		"KHR_materials_specular",
		"KHR_materials_ior"
	],
	"scene":0,
	"scenes":[
		{
			"name":"Scene",
			"nodes":[
				1
			]
		}
	],
	"nodes":[
		{
			"mesh":0,
			"name":"Object_1",
			"translation":[
				0,
				8.351261138916016,
				0
			]
		},
		{
			"children":[
				0
			],
			"name":"Default"
		}
	],
	"materials":[
		{
			"doubleSided":true,
			"extensions":{
				"KHR_materials_specular":{
					"specularColorFactor":[
						2.0,
						2.0,
						2.0
					]
				},
				"KHR_materials_ior":{
					"ior":1.4500000476837158
				}
			},
			"name":"/Generic",
			"pbrMetallicRoughness":{
				"baseColorFactor":[
					1,
					0,
					0,
					1
				],
				"metallicFactor":0,
				"roughnessFactor":0.5527864098548889
			}
		}
	],
	"meshes":[
		{
			"name":"Object_1",
			"primitives":[
				{
					"attributes":{
						"POSITION":0,
						"NORMAL":1,
						"TEXCOORD_0":2
					},
					"indices":3,
					"material":0
				}
			]
		}
	],
	"accessors":[
		{
			"bufferView":0,
			"componentType":5126,
			"count":33151,
			"max":[
				1,
				1,
				1
			],
			"min":[
				-1,
				-1,
				-1
			],
			"type":"VEC3"
		},
		{
			"bufferView":1,
			"componentType":5126,
			"count":33151,
			"type":"VEC3"
		},
		{
			"bufferView":2,
			"componentType":5126,
			"count":33151,
			"type":"VEC2"
		},
		{
			"bufferView":3,
			"componentType":5123,
			"count":195072,
			"type":"SCALAR"
		}
	],
	"bufferViews":[
		{
			"buffer":0,
			"byteLength":397812,
			"byteOffset":0,
			"target":34962
		},
		{
			"buffer":0,
			"byteLength":397812,
			"byteOffset":397812,
			"target":34962
		},
		{
			"buffer":0,
			"byteLength":265208,
			"byteOffset":795624,
			"target":34962
		},
		{
			"buffer":0,
			"byteLength":390144,
			"byteOffset":1060832,
			"target":34963
		}
	],
	"buffers":[
		{
			"byteLength":1450976,
			"uri":"sphere03.bin"
		}
	]
}
